# xmcd
# 
# Track frame offsets:
#     150
#     2590
#     15247
#     31413
#     41863
#     51413
#     63078
#     69395
#     84577
#     94898
#     113445
#     123762
#     135198
#     145623
# 
# Disc length: 2072
# 
# Revision: 33
# Processed by: cddbd v1.5.2PL0 Copyright (c) Steve Scherf et al.
# Submitted via: fre:ac v1.0.31
# 
DISCID=a508160e
DTITLE=Simon and Garfunkel - Bookends
DYEAR=1968
DGENRE=Folk
TTITLE0=Bookends Theme
TTITLE1=Save The Life Of My Child
TTITLE2=America
TTITLE3=Overs
TTITLE4=Voices Of Old People
TTITLE5=Old Friends
TTITLE6=Bookends Theme
TTITLE7=Fakin' It
TTITLE8=Punky's Dilemma
TTITLE9=Mrs. Robinson
TTITLE10=A Hazy Shade Of Winter
TTITLE11=At The Zoo
TTITLE12=You Don't Know Where Your Interest Lies
TTITLE13=Old Friends (Demo)
EXTD=
EXTT0=
EXTT1=
EXTT2=
EXTT3=
EXTT4=
EXTT5=
EXTT6=
EXTT7=
EXTT8=
EXTT9=
EXTT10=
EXTT11=
EXTT12=
EXTT13=
PLAYORDER=
